<svg width="165" height="148" viewBox="0 0 165 148" fill="none" xmlns="http://www.w3.org/2000/svg">
<path d="M32.0208 69L35.5 67.5L35.5208 63L36.0208 59.5L38.5208 55.5L44.5208 47L61.5208 25.5L67.0208 21L72.0208 18.5L77.5208 17L85.5208 17.5L95.0208 20L100.521 22.5L103.521 25L111.521 33L115.021 38L120.521 46C124.521 51 132.721 61.3 133.521 62.5C134.321 63.7 132.667 67.1667 132 68L138.5 73.5L141 76.5L141.5 81.5L141 87.5L138.5 91L142.5 94.5L148 102.5L149.5 108L147.5 112L145.5 114L141 118.5L136 122L132 125L125 128.5L119 129.5L112.5 129L109.5 128.5L110.5 126.5L108.021 129.5L102.5 131L96.5 130.5L93 130L91 129L89.5 127.5L88 125.5H86H82H77H74L72.5 127L69.5 129L64.5 132H61L58.5 131L57.5 130L57 129.5H54H51L46 130L41 129L35 125.5L31 123L21.5 115.5L17 110V106L20 101L24 95.5L27 90L26 88L25 84.5L24.5 78.5L27.5208 72.5L32.0208 69Z" fill="#FFC024"/>
<path d="M98.5208 76.5C113.321 77.3 97.8542 37.8333 88.5208 19L90.0208 18L97.0208 20.5L106.021 27L117.521 40.5C120.521 45 124.652 51.0196 128.521 56.5C134.521 65 133.833 66.6667 132.5 67.5L134.25 69.25L136 71L140.5 74.5L142 79.5L141 86.5L139.5 89L138.5 91.5L145 98.5L149 103.5V108.5L147.5 112.5L145 114.868L138 120.5L135.5 122.5L133.5 124L127 128L115.5 129.5L112 129L110 129.5L108.5 129L108.021 128.5L91.5208 106.5C87.5208 95.5 83.7208 75.7 98.5208 76.5Z" fill="white" fill-opacity="0.22"/>
<rect x="42.5208" y="80.9322" width="4.86063" height="27" rx="2.43032" transform="rotate(-30.0257 42.5208 80.9322)" fill="white"/>
<rect x="101.521" y="26.6802" width="3.34959" height="13.4167" rx="1.67479" transform="rotate(-40.6074 101.521 26.6802)" fill="white"/>
<rect x="114.643" y="44.4394" width="3.34959" height="22.6777" rx="1.67479" transform="rotate(-37.2041 114.643 44.4394)" fill="white"/>
<rect x="25.031" y="96.0817" width="4.86063" height="27" rx="2.43032" transform="rotate(-37.5343 25.031 96.0817)" fill="white"/>
<path d="M39.5207 70C33.5207 68.8 34.6874 61.8333 36.0207 58.5C41.1874 50.8333 53.1208 34.3999 63.5208 23.9999C73.9208 13.5999 95.5208 17 102.021 23L113.521 35.5C117.354 41.1667 126.221 53.9 131.021 59.5C135.821 65.1 132.021 68.1667 129.521 69L103.521 75.5L80.0208 77L53.0208 73.5C51.0208 72.8333 45.5207 71.2 39.5207 70Z" stroke="black" stroke-width="1.8"/>
<path opacity="0.8" d="M133 69C124 73.5 109.521 90 106.521 99" stroke="black" stroke-width="1.8"/>
<g filter="url(#filter0_d_596_2)">
<ellipse cx="98.5208" cy="51" rx="15" ry="17.5" fill="white"/>
<path d="M98.5208 35C105.768 35 112.021 41.9382 112.021 51C112.021 60.0618 105.768 67 98.5208 67C91.2735 67 85.0208 60.0618 85.0208 51C85.0208 41.9382 91.2735 35 98.5208 35Z" stroke="black" stroke-width="3"/>
</g>
<g filter="url(#filter1_d_596_2)">
<ellipse cx="67.5208" cy="50" rx="15" ry="17.5" fill="white"/>
<path d="M67.5208 34C74.768 34 81.0208 40.9382 81.0208 50C81.0208 59.0618 74.768 66 67.5208 66C60.2735 66 54.0208 59.0618 54.0208 50C54.0208 40.9382 60.2735 34 67.5208 34Z" stroke="black" stroke-width="3"/>
</g>
<circle cx="68.5208" cy="48.5" r="5" fill="black"/>
<circle cx="68.5208" cy="48.5" r="5" fill="black"/>
<circle cx="68.5208" cy="48.5" r="5" fill="black"/>
<circle cx="68.5208" cy="48.5" r="5" fill="black"/>
<circle cx="97.5208" cy="48.5" r="5" fill="black"/>
<circle cx="97.5208" cy="48.5" r="5" fill="black"/>
<circle cx="97.5208" cy="48.5" r="5" fill="black"/>
<circle cx="97.5208" cy="48.5" r="5" fill="black"/>
<circle cx="100.521" cy="46.5" r="2" fill="black"/>
<circle cx="100.521" cy="46.5" r="2" fill="black"/>
<circle cx="100.521" cy="46.5" r="2" fill="black"/>
<circle cx="100.521" cy="46.5" r="2" fill="white"/>
<circle cx="71.5208" cy="46.5" r="2" fill="black"/>
<circle cx="71.5208" cy="46.5" r="2" fill="black"/>
<circle cx="71.5208" cy="46.5" r="2" fill="black"/>
<circle cx="71.5208" cy="46.5" r="2" fill="white"/>
<path d="M35 68C35.9654 68.0348 45.7907 75.7151 48.9828 81.0119C51.5365 85.2493 56.3938 94.406 58.5032 98.4547" stroke="black" stroke-width="1.8"/>
<path d="M64 110C67.8333 114.833 75.2 124.7 74 125.5" stroke="black"/>
<path d="M97.5713 111C94.4046 115.333 88.2713 124.4 89.0713 126" stroke="black"/>
<path d="M47.5 43.5L53.8946 47.2855" stroke="black" stroke-width="5"/>
<path d="M118 42L112 45" stroke="black" stroke-width="5"/>
<path d="M82 49C82.2222 47.4908 82.9333 45.3778 84 49" stroke="black"/>
<path d="M27.5 90.5C17.5 74 34.0001 68.5 35.5001 68L55.0001 74L67.0001 75.1613L86.0001 77L112 73.5L131 68L133 69C134.167 69.8333 137.1 72 139.5 74C141.9 76 141.833 84.5 141.5 86L138 91.5L136.5 93C127.333 105 109.8 126.9 109 128.5C108.2 130.1 104.667 130.833 103 131C100.833 131 95.8001 130.8 93.0001 130C90.2001 129.2 88.8334 126.667 88.5001 125.5H74.0001L70.5001 128.5C69.0001 129.333 65.5001 131.2 63.5001 132C61.5001 132.8 58.6667 131 57.5001 130L48.5001 119C44.8334 115 35.5 103.7 27.5 90.5Z" stroke="black" stroke-width="1.8"/>
<path d="M18.1043 103.5L27.1043 91L41.5 110.5L56 128.5L46.1042 130L40.1042 129L29.6042 122C26.6043 119.833 20.1043 114.8 18.1043 112C16.1043 109.2 17.271 105.167 18.1043 103.5Z" stroke="black" stroke-width="1.8"/>
<path d="M148.058 102.515L138.794 90.1443L108.537 128.576L120.162 129.412L126.206 128.326L136.708 121.177C139.707 118.968 146.198 113.842 148.178 111.014C150.158 108.185 148.923 104.169 148.058 102.515Z" stroke="black" stroke-width="1.8"/>
<defs>
<filter id="filter0_d_596_2" x="80.5208" y="33.5" width="33" height="35" filterUnits="userSpaceOnUse" color-interpolation-filters="sRGB">
<feFlood flood-opacity="0" result="BackgroundImageFix"/>
<feColorMatrix in="SourceAlpha" type="matrix" values="0 0 0 0 0 0 0 0 0 0 0 0 0 0 0 0 0 0 127 0" result="hardAlpha"/>
<feOffset dx="-3"/>
<feComposite in2="hardAlpha" operator="out"/>
<feColorMatrix type="matrix" values="0 0 0 0 0 0 0 0 0 0 0 0 0 0 0 0 0 0 0.25 0"/>
<feBlend mode="normal" in2="BackgroundImageFix" result="effect1_dropShadow_596_2"/>
<feBlend mode="normal" in="SourceGraphic" in2="effect1_dropShadow_596_2" result="shape"/>
</filter>
<filter id="filter1_d_596_2" x="49.5208" y="32.5" width="33" height="36" filterUnits="userSpaceOnUse" color-interpolation-filters="sRGB">
<feFlood flood-opacity="0" result="BackgroundImageFix"/>
<feColorMatrix in="SourceAlpha" type="matrix" values="0 0 0 0 0 0 0 0 0 0 0 0 0 0 0 0 0 0 127 0" result="hardAlpha"/>
<feOffset dx="-3" dy="1"/>
<feComposite in2="hardAlpha" operator="out"/>
<feColorMatrix type="matrix" values="0 0 0 0 0 0 0 0 0 0 0 0 0 0 0 0 0 0 0.25 0"/>
<feBlend mode="normal" in2="BackgroundImageFix" result="effect1_dropShadow_596_2"/>
<feBlend mode="normal" in="SourceGraphic" in2="effect1_dropShadow_596_2" result="shape"/>
</filter>
</defs>
</svg>
